# AST/ASF file generated using VICON BodyLanguage
# -----------------------------------------------
:version 1.10
:name VICON
:units
  mass 1.0
  length 0.45
  angle deg
:documentation
   .ast/.asf automatically generated from VICON data using
   VICON BodyBuilder and BodyLanguage model FoxedUp or BRILLIANT.MOD
:root
   order TX TY TZ RX RY RZ
   axis XYZ
   position 0 0 0  
   orientation 0 0 0 
:bonedata
  begin
     id 1 
     name lhipjoint
     direction 0.722297 -0.617336 0.311742 
     length 2.6635 
     axis 0 0 0  XYZ
  end
  begin
     id 2 
     name lfemur
     direction 0.34202 -0.939693 0  
     length 7.39349  
     axis 0 0 20  XYZ
    dof rx ry rz
    limits (-160.0 20.0)
           (-70.0 70.0)
           (-60.0 70.0)
  end
  begin
     id 3 
     name ltibia
     direction 0.34202 -0.939693 0   
     length 7.36294   
     axis 0 0 20   XYZ
    dof rx
    limits (-10.0 170.0)
  end
  begin
     id 4 
     name lfoot
     direction 0.104879 -0.288152 0.951824   
     length 2.16981   
     axis -90 7.62852e-016 20   XYZ
    dof rx rz
    limits (-45.0 90.0)
           (-70.0 20.0)
  end
  begin
     id 5 
     name ltoes
     direction 1.53586e-011 -4.21895e-011 1   
     length 1.08218   
     axis -90 7.62852e-016 20   XYZ
    dof rx
    limits (-90.0 20.0)
  end
  begin
     id 6 
     name rhipjoint
     direction -0.75102 -0.589393 0.297631   
     length 2.78977  
     axis 0 0 0  XYZ 
  end
  begin
     id 7 
     name rfemur
     direction -0.34202 -0.939693 0   
     length 7.46076   
     axis 0 0 -20   XYZ
    dof rx ry rz
    limits (-160.0 20.0)
           (-70.0 70.0)
           (-70.0 60.0)
  end
  begin
     id 8 
     name rtibia
     direction -0.34202 -0.939693 0   
     length 7.31726   
     axis 0 0 -20   XYZ
    dof rx
    limits (-10.0 170.0)
 end
 begin
     id 9 
     name rfoot
     direction -0.107991 -0.296704 0.948844   
     length 2.09388  
     axis -90 -7.62852e-016 -20   XYZ
    dof rx rz
    limits (-45.0 90.0)
           (-20.0 70.0)
  end
  begin
     id 10 
     name rtoes
     direction -1.53559e-011 -4.21911e-011 1   
     length 1.04433   
     axis -90 -7.62852e-016 -20   XYZ
    dof rx
    limits (-90.0 20.0)
  end
  begin
     id 11 
     name lowerback
     direction 0.0165164 0.98272 0.184358   
     length 1.71896   
     axis 0 0 0   XYZ
    dof rx ry rz
    limits (-20.0 45.0)
           (-30.0 30.0)
           (-30.0 30.0)
  end
  begin
     id 12 
     name upperback
     direction -0.00887249 0.992297 0.123566   
     length 1.71504   
     axis 0 0 0   XYZ
    dof rx ry rz
    limits (-20.0 45.0)
           (-30.0 30.0)
           (-30.0 30.0)
  end
  begin
     id 13 
     name thorax
     direction -0.0157026 0.998908 0.0440032   
     length 1.77022   
     axis 0 0 0   XYZ
    dof rx ry rz
    limits (-20.0 45.0)
           (-30.0 30.0)
           (-30.0 30.0)
  end
  begin
     id 14 
     name lowerneck
     direction -0.0238856 0.998137 0.0561411   
     length 1.89341   
     axis 0 0 0   XYZ
    dof rx ry rz
    limits (-20.0 45.0)
           (-30.0 30.0)
           (-30.0 30.0)
  end
  begin
     id 15 
     name upperneck
     direction 0.0276574 0.952253 -0.304056   
     length 1.86999   
     axis 0 0 0   XYZ
    dof rx ry rz
    limits (-20.0 45.0)
           (-30.0 30.0)
           (-30.0 30.0)
  end
  begin
     id 16
     name head
     direction 0.00800083 0.994258 -0.106712  
     length 1.91492  
     axis 0 0 0   XYZ
    dof rx ry rz
    limits (-20.0 45.0)
           (-30.0 30.0)
           (-30.0 30.0)
  end
  begin
     id 17 
     name lclavicle
     direction 0.97203 0.225407 0.06595  
     length 3.34889  
     axis 0 0 0   XYZ
    dof ry rz
    limits (-20.0 10.0)
           (0.0 20.0)
  end
  begin
     id 18 
     name lhumerus
     direction 1 -4.48973e-011 2.20267e-027   
     length 4.85645   
     axis 180 -30 -90   XYZ
    dof rx ry rz
    limits (-60.0 90.0)
           (-90.0 90.0)
           (-90.0 90.0)
  end
  begin
     id 19
     name lradius
     direction 1 -4.4897e-011 4.60472e-027   
     length 2.79874   
     axis 180 -30 -90   XYZ
    dof rx
    limits (-10.0 170.0)
  end
  begin
     id 20
     name lwrist
     direction 1 -4.48952e-011 1.14928e-026   
     length 1.39937   
     axis -6.29373e-015 90 90   XYZ
    dof ry
    limits (-180.0 0.0)
 end
  begin
     id 21 
     name lhand
     direction 1 -4.48967e-011 2.29886e-026   
     length 0.573398   
     axis -1.46689e-014 90 90   XYZ
    dof rx rz
    limits (-90.0 90.0)
           (-45.0 45.0)
  end
  begin
     id 22 
     name lfingers
     direction 1 -4.48955e-011 4.59726e-026   
     length 0.462289   
     axis -2.93383e-014 90 90   XYZ
    dof rx
    limits (0.0 90.0)
  end
  begin
     id 23
     name lthumb
     direction 0.707107 -6.34866e-011 0.707107   
     length 0.663757   
     axis -90 45 5.69224e-014   XYZ
    dof rx rz
    limits (-45.0 45.0)
           (-45.0 45.0)
  end
  begin
     id 24 
     name rclavicle
     direction -0.981571 0.157346 0.108443   
     length 3.35257  
     axis 0 0 0   XYZ 
    dof ry rz
    limits (-10.0 20.0)
           (-20.0 0.0)
  end
  begin
     id 25 
     name rhumerus
     direction -1 -4.48967e-011 8.58308e-029  
     length 4.67018   
     axis 180 30 90   XYZ
    dof rx ry rz
    limits (-90.0 60.0)
           (-90.0 90.0)
           (-90.0 90.0)
  end
  begin
     id 26 
     name rradius
     direction -1 -4.48958e-011 4.52548e-027   
     length 2.65534   
     axis 180 30 90   XYZ
    dof rx
    limits (-10.0 170.0)
  end
  begin
     id 27 
     name rwrist
     direction -1 -4.48977e-011 1.14952e-026   
     length 1.32767   
     axis -6.29373e-015 -90 -90   XYZ
    dof ry
    limits (-180.0 0.0)
  end
  begin
     id 28
     name rhand
     direction -1 -4.48924e-011 2.29804e-026   
     length 0.594069   
     axis -1.46689e-014 -90 -90   XYZ
    dof rx rz
    limits (-90.0 90.0)
           (-45.0 45.0)
  end
  begin
     id 29
     name rfingers
     direction -1 -4.48998e-011 4.59888e-026   
     length 0.478954   
     axis -2.93383e-014 -90 -90   XYZ
    dof rx
    limits (0.0 90.0)
  end
  begin
     id 30
     name rthumb
     direction -0.707107 -6.34933e-011 0.707107   
     length 0.687685   
     axis -90 -45 -5.69224e-014   XYZ
    dof rx rz
    limits (-45.0 45.0)
           (-45.0 45.0)
  end
:hierarchy
  begin
    root lhipjoint rhipjoint lowerback
    lhipjoint lfemur
    lfemur ltibia
    ltibia lfoot
    lfoot ltoes
    rhipjoint rfemur
    rfemur rtibia
    rtibia rfoot
    rfoot rtoes
    lowerback upperback
    upperback thorax
    thorax lowerneck lclavicle rclavicle
    lowerneck upperneck
    upperneck head
    lclavicle lhumerus
    lhumerus lradius
    lradius lwrist
    lwrist lhand lthumb
    lhand lfingers
    rclavicle rhumerus
    rhumerus rradius
    rradius rwrist
    rwrist rhand rthumb
    rhand rfingers
  end

#!OML:ASF E:\pregnant2\Project 1\Capture day 1\Session 1\pregnant2.ASF
:FULLY-SPECIFIED
:DEGREES
865
root -3.69488 3.60911 16.9732 -9.47852 0.484789 -14.4906
lowerback -3.01283 -1.03071 0.701391
upperback -6.14747 -1.1403 6.6881
thorax -4.5779 -0.418605 6.62483
lowerneck -15.9431 -4.3122 -6.19257
upperneck 45.148 -5.83174 2.14011
head 21.116 -3.08431 0.942657
rclavicle -9.26834e-015 -1.39646e-014
rhumerus -85.7179 0.168769 -85.4502
rradius 34.2165
rwrist -3.12151
rhand -39.8874 -72.1852
rfingers 7.12502
rthumb -12.8592 -258.231
lclavicle -9.26834e-015 -1.39646e-014
lhumerus -72.8157 -1.42097 93.3032
lradius 35.3102
lwrist 25.2042
lhand -39.5921 81.0178
lfingers 7.12502
lthumb -12.5746 249.381
rfemur -136.544 -22.5542 45.7712
rtibia 143.273
rfoot -0.1631 8.62053
rtoes 4.99689
lfemur -118.238 -0.951296 -44.4927
ltibia 85.8713
lfoot 5.80662 5.73672
ltoes 12.8469
866
root -3.70648 3.60655 16.9762 -9.55125 0.365701 -14.3782
lowerback -3.11975 -1.03207 0.751532
upperback -6.16425 -1.14563 6.70447
thorax -4.53516 -0.42361 6.61136
lowerneck -15.915 -4.31147 -6.13411
upperneck 45.1982 -5.88057 2.16918
head 21.1461 -3.08948 0.937211
rclavicle -1.36416e-014 2.03754e-015
rhumerus -85.8895 0.35874 -85.8053
rradius 34.4583
rwrist -3.38331
rhand -39.9309 -72.7761
rfingers 7.12502
rthumb -12.9012 -257.643
lclavicle -1.36416e-014 2.03754e-015
lhumerus -72.9268 -1.47385 93.411
lradius 35.3829
lwrist 25.377
lhand -39.5902 80.9378
lfingers 7.12502
lthumb -12.5727 249.46
rfemur -136.555 -22.4574 45.8653
rtibia 143.31
rfoot -0.0913273 8.58775
rtoes 5.26031
lfemur -117.477 -0.735834 -44.1082
ltibia 84.0142
lfoot 5.7245 5.64048
ltoes 13.3181
867
root -3.71815 3.60417 16.9795 -9.61914 0.241661 -14.2609
lowerback -3.22456 -1.01943 0.804801
upperback -6.18623 -1.13213 6.71198
thorax -4.50134 -0.419285 6.5868
lowerneck -15.867 -4.3184 -6.0891
upperneck 45.2472 -5.94215 2.20774
head 21.1717 -3.10077 0.93677
rclavicle 6.13126e-015 6.38596e-015
rhumerus -86.0829 0.457311 -86.0133
rradius 34.6921
rwrist -3.51744
rhand -39.8759 -73.2781
rfingers 7.12502
rthumb -12.8481 -257.137
lclavicle 6.13126e-015 6.38596e-015
lhumerus -73.0337 -1.55129 93.5208
lradius 35.4351
lwrist 25.5341
lhand -39.5834 80.8163
lfingers 7.12502
lthumb -12.5662 249.582
rfemur -136.567 -22.3515 45.9523
rtibia 143.349
rfoot -0.0189024 8.55278
rtoes 5.50278
lfemur -116.707 -0.523169 -43.7197
ltibia 82.1698
lfoot 5.61178 5.59891
ltoes 13.7121
868
root -3.72989 3.60205 16.9825 -9.68846 0.114129 -14.1456
lowerback -3.31675 -0.994921 0.863304
upperback -6.20926 -1.10233 6.71414
thorax -4.47771 -0.40696 6.55389
lowerneck -15.8107 -4.33122 -6.0502
upperneck 45.2965 -6.01281 2.24977
head 21.1965 -3.11611 0.937457
rclavicle -2.18073e-014 2.54056e-014
rhumerus -86.2936 0.484607 -86.1249
rradius 34.9169
rwrist -3.58493
rhand -39.8913 -73.6288
rfingers 7.12502
rthumb -12.863 -256.788
lclavicle -2.18073e-014 2.54056e-014
lhumerus -73.1312 -1.64304 93.625
lradius 35.4708
lwrist 25.6678
lhand -39.5623 80.7119
lfingers 7.12502
lthumb -12.5458 249.685
rfemur -136.566 -22.2408 46.0365
rtibia 143.384
rfoot 0.0478718 8.51624
rtoes 5.72351
lfemur -115.921 -0.311314 -43.3168
ltibia 80.3315
lfoot 5.49286 5.61625
ltoes 14.0337
869
root -3.74031 3.60054 16.9846 -9.7504 0.00366993 -13.9881
lowerback -3.40067 -0.966929 0.892313
upperback -6.23327 -1.06798 6.69789
thorax -4.45989 -0.391427 6.51841
lowerneck -15.7647 -4.34507 -6.00554
upperneck 45.3484 -6.08355 2.28566
head 21.2257 -3.131 0.933726
rclavicle -3.45823e-014 7.46436e-014
rhumerus -86.5051 0.468655 -86.1687
rradius 35.1269
rwrist -3.59132
rhand -39.9564 -73.8407
rfingers 7.12502
rthumb -12.9257 -256.58
lclavicle -3.45823e-014 7.46436e-014
lhumerus -73.2179 -1.72689 93.7064
lradius 35.5046
lwrist 25.7654
lhand -39.538 80.62
lfingers 7.12502
lthumb -12.5224 249.775
rfemur -136.61 -22.1717 46.1043
rtibia 143.419
rfoot 0.131584 8.51836
rtoes 5.93303
lfemur -115.105 -0.123476 -42.9535
ltibia 78.4925
lfoot 5.36312 5.69054
ltoes 14.2326
870
root -3.75113 3.59916 16.9859 -9.8128 -0.108443 -13.8472
lowerback -3.46518 -0.935509 0.922748
upperback -6.25267 -1.02826 6.68806
thorax -4.44871 -0.373047 6.48945
lowerneck -15.7406 -4.36075 -5.95608
upperneck 45.4052 -6.15524 2.31621
head 21.2651 -3.14566 0.925658
rclavicle -2.57178e-014 2.82771e-014
rhumerus -86.7066 0.434822 -86.1881
rradius 35.3107
rwrist -3.54875
rhand -40.1039 -73.8773
rfingers 7.12502
rthumb -13.0679 -256.552
lclavicle -2.57178e-014 2.82771e-014
lhumerus -73.2866 -1.7965 93.7662
lradius 35.5349
lwrist 25.8361
lhand -39.5157 80.5558
lfingers 7.12502
lthumb -12.5009 249.838
rfemur -136.633 -22.087 46.171
rtibia 143.445
rfoot 0.207266 8.50772
rtoes 6.09861
lfemur -114.278 0.0622087 -42.5606
ltibia 76.6509
lfoot 5.27718 5.80499
ltoes 14.0497
871
root -3.76091 3.59805 16.9864 -9.85157 -0.209282 -13.6679
lowerback -3.53504 -0.904442 0.914026
upperback -6.27517 -0.989288 6.66815
thorax -4.43713 -0.35353 6.47217
lowerneck -15.7417 -4.37611 -5.90067
upperneck 45.467 -6.22363 2.33898
head 21.3152 -3.15852 0.91262
rclavicle -2.8302e-014 3.54334e-014
rhumerus -86.8939 0.407837 -86.2204
rradius 35.4556
rwrist -3.4574
rhand -40.3356 -73.7903
rfingers 7.12502
rthumb -13.2913 -256.654
lclavicle -2.8302e-014 3.54334e-014
lhumerus -73.342 -1.84091 93.7997
lradius 35.5676
lwrist 25.8776
lhand -39.517 80.4603
lfingers 7.12502
lthumb -12.5021 249.934
rfemur -136.71 -22.013 46.2101
rtibia 143.469
rfoot 0.300359 8.52865
rtoes 6.23088
lfemur -113.449 0.225287 -42.1991
ltibia 74.8012
lfoot 5.2488 5.95647
ltoes 13.535
